<svg width="420" height="519" viewBox="0 0 420 519" fill="none" xmlns="http://www.w3.org/2000/svg">
<path d="M210 46.69C166.681 46.69 125.137 63.8983 94.5059 94.5292C63.875 125.16 46.6667 166.705 46.6667 210.023C46.6667 276.803 88.2467 341.227 133.887 391.137C157.223 416.561 182.687 439.948 210 461.043C214.076 457.917 218.859 454.106 224.35 449.61C246.279 431.603 266.917 412.079 286.113 391.183C331.753 341.227 373.333 276.827 373.333 210.023C373.333 166.705 356.125 125.16 325.494 94.5292C294.863 63.8983 253.319 46.69 210 46.69ZM210 518.35L196.77 509.25L196.7 509.203L196.56 509.087L196.093 508.76L194.343 507.523L188.043 502.927C156.12 478.935 126.464 452.067 99.4467 422.66C51.7533 370.44 0 294.863 0 210C8.29927e-07 154.305 22.1249 100.89 61.5076 61.5076C100.89 22.1249 154.305 0 210 0C265.695 0 319.11 22.1249 358.492 61.5076C397.875 100.89 420 154.305 420 210C420 294.863 368.247 370.463 320.553 422.613C293.544 452.019 263.895 478.887 231.98 502.88C229.321 504.866 226.638 506.818 223.93 508.737L223.44 509.063L223.3 509.18L223.253 509.203L210 518.35ZM210 163.357C197.623 163.357 185.753 168.273 177.002 177.025C168.25 185.777 163.333 197.647 163.333 210.023C163.333 222.4 168.25 234.27 177.002 243.022C185.753 251.773 197.623 256.69 210 256.69C222.377 256.69 234.247 251.773 242.998 243.022C251.75 234.27 256.667 222.4 256.667 210.023C256.667 197.647 251.75 185.777 242.998 177.025C234.247 168.273 222.377 163.357 210 163.357ZM116.667 210.023C116.667 185.27 126.5 161.53 144.003 144.027C161.507 126.523 185.246 116.69 210 116.69C234.754 116.69 258.493 126.523 275.997 144.027C293.5 161.53 303.333 185.27 303.333 210.023C303.333 234.777 293.5 258.517 275.997 276.02C258.493 293.523 234.754 303.357 210 303.357C185.246 303.357 161.507 293.523 144.003 276.02C126.5 258.517 116.667 234.777 116.667 210.023Z" fill="white"/>
</svg>
