<svg width="600" height="540" viewBox="0 0 600 540" fill="none" xmlns="http://www.w3.org/2000/svg">
<path d="M382.62 210C411.6 210 435.12 233.52 435.12 262.5V404.97C435.12 440.782 420.894 475.128 395.571 500.451C370.248 525.774 335.902 540 300.09 540C264.278 540 229.932 525.774 204.609 500.451C179.286 475.128 165.06 440.782 165.06 404.97V262.5C165.06 233.52 188.55 210 217.56 210H382.62ZM382.62 255H217.56C215.571 255 213.663 255.79 212.257 257.197C210.85 258.603 210.06 260.511 210.06 262.5V404.97C210.06 428.847 219.545 451.747 236.429 468.631C253.313 485.515 276.213 495 300.09 495C323.967 495 346.867 485.515 363.751 468.631C380.635 451.747 390.12 428.847 390.12 404.97V262.5C390.12 260.511 389.33 258.603 387.923 257.197C386.517 255.79 384.609 255 382.62 255ZM52.5 210H153.93C143.349 222.785 136.886 238.472 135.39 255H52.5C50.5109 255 48.6032 255.79 47.1967 257.197C45.7902 258.603 45 260.511 45 262.5V359.97C44.9923 371.308 47.5556 382.501 52.4969 392.706C57.4382 402.911 64.629 411.863 73.5285 418.888C82.4281 425.914 92.8047 430.83 103.878 433.267C114.951 435.705 126.433 435.6 137.46 432.96C140.01 448.08 144.66 462.51 151.05 475.92C141.13 478.62 130.78 479.98 120 480C104.239 480 88.6321 476.895 74.0711 470.863C59.51 464.83 46.28 455.988 35.1366 444.842C23.9932 433.696 15.1547 420.464 9.12585 405.901C3.09705 391.339 -0.00393654 375.731 3.75034e-06 359.97V262.5C3.75034e-06 233.52 23.52 210 52.5 210ZM446.25 210H547.5C576.48 210 600 233.52 600 262.5V360C600.004 378.395 595.779 396.545 587.652 413.047C579.524 429.549 567.712 443.961 553.127 455.171C538.542 466.381 521.575 474.087 503.538 477.696C485.5 481.304 466.875 480.717 449.1 475.98C455.52 462.54 460.17 448.11 462.75 432.99C468.29 434.31 474.04 434.98 480 435C499.891 435 518.968 427.098 533.033 413.033C547.098 398.968 555 379.891 555 360V262.5C555 260.511 554.21 258.603 552.803 257.197C551.397 255.79 549.489 255 547.5 255H464.79C463.294 238.472 456.831 222.785 446.25 210ZM300 0C323.869 0 346.761 9.48212 363.64 26.3604C380.518 43.2387 390 66.1305 390 90C390 113.869 380.518 136.761 363.64 153.64C346.761 170.518 323.869 180 300 180C276.131 180 253.239 170.518 236.36 153.64C219.482 136.761 210 113.869 210 90C210 66.1305 219.482 43.2387 236.36 26.3604C253.239 9.48212 276.131 0 300 0ZM495 30C514.891 30 533.968 37.9018 548.033 51.967C562.098 66.0322 570 85.1088 570 105C570 124.891 562.098 143.968 548.033 158.033C533.968 172.098 514.891 180 495 180C475.109 180 456.032 172.098 441.967 158.033C427.902 143.968 420 124.891 420 105C420 85.1088 427.902 66.0322 441.967 51.967C456.032 37.9018 475.109 30 495 30ZM105 30C124.891 30 143.968 37.9018 158.033 51.967C172.098 66.0322 180 85.1088 180 105C180 124.891 172.098 143.968 158.033 158.033C143.968 172.098 124.891 180 105 180C85.1088 180 66.0322 172.098 51.967 158.033C37.9018 143.968 30 124.891 30 105C30 85.1088 37.9018 66.0322 51.967 51.967C66.0322 37.9018 85.1088 30 105 30ZM300 45C288.065 45 276.619 49.7411 268.18 58.1802C259.741 66.6193 255 78.0653 255 90C255 101.935 259.741 113.381 268.18 121.82C276.619 130.259 288.065 135 300 135C311.935 135 323.381 130.259 331.82 121.82C340.259 113.381 345 101.935 345 90C345 78.0653 340.259 66.6193 331.82 58.1802C323.381 49.7411 311.935 45 300 45ZM495 75C487.044 75 479.413 78.1607 473.787 83.7868C468.161 89.4129 465 97.0435 465 105C465 112.956 468.161 120.587 473.787 126.213C479.413 131.839 487.044 135 495 135C502.956 135 510.587 131.839 516.213 126.213C521.839 120.587 525 112.956 525 105C525 97.0435 521.839 89.4129 516.213 83.7868C510.587 78.1607 502.956 75 495 75ZM105 75C97.0435 75 89.4129 78.1607 83.7868 83.7868C78.1607 89.4129 75 97.0435 75 105C75 112.956 78.1607 120.587 83.7868 126.213C89.4129 131.839 97.0435 135 105 135C112.957 135 120.587 131.839 126.213 126.213C131.839 120.587 135 112.956 135 105C135 97.0435 131.839 89.4129 126.213 83.7868C120.587 78.1607 112.957 75 105 75Z" fill="white"/>
</svg>
