<svg width="210" height="175" viewBox="0 0 210 175" fill="none" xmlns="http://www.w3.org/2000/svg">
<path d="M192.101 1.54509C192.101 1.54509 211.526 -6.02992 209.901 12.3651C209.366 19.9401 204.511 46.4551 200.731 75.1301L187.781 160.08C187.781 160.08 186.701 172.525 176.986 174.69C167.276 176.85 152.706 167.115 150.006 164.95C147.846 163.325 109.536 138.975 96.0465 127.075C92.2665 123.825 87.9465 117.335 96.5865 109.76L153.246 55.6501C159.721 49.1501 166.196 34.0001 139.216 52.4001L63.6665 103.8C63.6665 103.8 55.0315 109.215 38.8465 104.345L3.76647 93.5201C3.76647 93.5201 -9.18353 85.4051 12.9415 77.2901C66.9065 51.8601 133.281 25.8901 192.096 1.54009" fill="white"/>
</svg>
