<svg width="271" height="540" viewBox="0 0 271 540" fill="none" xmlns="http://www.w3.org/2000/svg">
<path d="M217.62 210C246.6 210 270.12 233.52 270.12 262.5V404.97C270.12 440.782 255.894 475.128 230.571 500.451C205.248 525.774 170.902 540 135.09 540C99.2779 540 64.9325 525.774 39.6094 500.451C14.2864 475.128 0.0600586 440.782 0.0600586 404.97V262.5C0.0600586 233.52 23.5501 210 52.5601 210H217.62ZM217.62 255H52.5601C50.5709 255 48.6633 255.79 47.2567 257.197C45.8502 258.603 45.0601 260.511 45.0601 262.5V404.97C45.0601 428.847 54.5453 451.747 71.4292 468.631C88.3131 485.515 111.213 495 135.09 495C158.967 495 181.867 485.515 198.751 468.631C215.635 451.747 225.12 428.847 225.12 404.97V262.5C225.12 260.511 224.33 258.603 222.923 257.197C221.517 255.79 219.609 255 217.62 255ZM135 0C158.87 0 181.761 9.48212 198.64 26.3604C215.518 43.2387 225 66.1305 225 90C225 113.869 215.518 136.761 198.64 153.64C181.761 170.518 158.87 180 135 180C111.131 180 88.2387 170.518 71.3604 153.64C54.4822 136.761 45.0001 113.869 45.0001 90C45.0001 66.1305 54.4822 43.2387 71.3604 26.3604C88.2387 9.48212 111.131 0 135 0ZM135 45C123.065 45 111.619 49.7411 103.18 58.1802C94.7411 66.6193 90.0001 78.0653 90.0001 90C90.0001 101.935 94.7411 113.381 103.18 121.82C111.619 130.259 123.065 135 135 135C146.935 135 158.381 130.259 166.82 121.82C175.259 113.381 180 101.935 180 90C180 78.0653 175.259 66.6193 166.82 58.1802C158.381 49.7411 146.935 45 135 45Z" fill="white"/>
</svg>
