<svg width="240" height="140" viewBox="0 0 240 140" fill="none" xmlns="http://www.w3.org/2000/svg">
<path fill-rule="evenodd" clip-rule="evenodd" d="M234.5 9.48C236.16 4.02 234.5 0 226.55 0H200.3C193.62 0 190.54 3.47 188.87 7.3C188.87 7.3 175.52 39.26 156.61 60.02C150.49 66.04 147.71 67.95 144.37 67.95C142.7 67.95 140.19 66.04 140.19 60.57V9.48C140.19 2.92 138.35 0 132.79 0H91.51C87.34 0 84.83 3.04 84.83 5.93C84.83 12.14 94.29 13.58 95.26 31.06V69.04C95.26 77.37 93.73 78.88 90.39 78.88C81.49 78.88 59.84 46.77 46.99 10.03C44.5 2.88 41.98 0 35.27 0H9C1.5 0 0 3.47 0 7.3C0 14.12 8.9 48 41.45 92.81C63.15 123.41 93.7 140 121.53 140C138.22 140 140.28 136.32 140.28 129.97V106.84C140.28 99.47 141.86 98 147.15 98C151.05 98 157.72 99.92 173.3 114.67C191.1 132.16 194.03 140 204.05 140H230.3C237.8 140 241.56 136.32 239.4 129.04C237.02 121.8 228.52 111.29 217.25 98.82C211.13 91.72 201.95 84.07 199.16 80.24C195.27 75.33 196.38 73.14 199.16 68.77C199.16 68.77 231.16 24.51 234.49 9.48" fill="white"/>
</svg>
